<?xml version="1.0" standalone="no"?>
<!DOCTYPE svg PUBLIC "-//W3C//DTD SVG 20010904//EN"
 "http://www.w3.org/TR/2001/REC-SVG-20010904/DTD/svg10.dtd">
<svg version="1.0" xmlns="http://www.w3.org/2000/svg"
 width="700.000000pt" height="700.000000pt" viewBox="0 0 700.000000 700.000000"
 preserveAspectRatio="xMidYMid meet">
<metadata>
Created by potrace 1.14, written by Peter Selinger 2001-2017
</metadata>
<g transform="translate(0.000000,700.000000) scale(0.100000,-0.100000)"
fill="#000000" stroke="none">
<path d="M3377 6954 c-1 -1 -51 -4 -112 -8 -60 -3 -123 -8 -140 -10 -16 -2
-56 -7 -87 -10 -31 -4 -83 -11 -115 -17 -32 -5 -67 -12 -78 -13 -246 -42 -595
-155 -850 -277 -212 -101 -530 -297 -635 -392 -8 -7 -33 -27 -55 -43 -22 -16
-42 -32 -45 -35 -3 -3 -27 -25 -55 -49 -91 -77 -286 -273 -345 -346 -9 -11
-45 -55 -81 -99 -157 -193 -306 -428 -411 -645 -76 -158 -88 -184 -88 -192 0
-5 -9 -28 -19 -51 -17 -37 -58 -144 -65 -172 -2 -5 -6 -17 -9 -25 -19 -47 -60
-202 -96 -370 -30 -136 -33 -151 -51 -295 -29 -230 -31 -604 -4 -815 41 -328
116 -621 234 -915 35 -88 151 -328 201 -415 30 -53 189 -299 209 -323 5 -7 42
-52 81 -102 136 -170 298 -342 427 -453 30 -26 60 -51 66 -57 6 -5 43 -35 81
-66 439 -348 1016 -607 1545 -693 19 -4 46 -8 60 -11 44 -9 157 -22 290 -32
168 -13 522 -7 650 12 14 2 45 6 70 9 25 3 86 13 135 22 50 9 104 18 120 20
17 3 37 7 45 10 8 3 26 8 40 10 89 17 399 116 486 155 22 10 64 27 92 38 96
38 434 218 477 253 6 5 40 28 76 51 36 23 78 53 95 65 16 12 42 32 59 45 224
170 438 375 590 567 33 41 63 77 66 80 11 9 134 184 159 225 13 22 27 42 30
45 30 24 270 489 270 522 0 8 4 18 8 24 30 34 174 496 187 599 1 11 7 47 13
80 6 33 14 74 17 90 3 17 8 55 11 85 3 30 7 61 10 68 22 69 21 630 -1 777 -2
17 -9 64 -15 105 -19 129 -21 144 -32 190 -5 25 -12 59 -15 75 -10 60 -95 343
-135 450 -246 658 -689 1231 -1259 1629 -52 36 -98 69 -104 74 -25 21 -300
174 -386 215 -324 155 -741 279 -1056 313 -32 3 -71 7 -88 10 -86 11 -458 26
-468 18z m826 -748 c34 -4 72 -8 82 -10 11 -2 47 -7 80 -11 46 -5 222 -40 300
-59 132 -33 346 -112 460 -169 56 -28 184 -104 195 -117 3 -3 23 -18 45 -35
22 -16 45 -34 52 -40 177 -157 261 -306 269 -476 12 -272 -176 -512 -604 -772
-112 -68 -485 -261 -622 -322 -36 -16 -94 -42 -130 -59 -36 -17 -67 -31 -70
-31 -3 -1 -25 -11 -50 -22 -25 -11 -99 -44 -165 -73 -159 -69 -181 -79 -310
-140 -60 -29 -114 -53 -120 -54 -29 -7 -355 -173 -386 -197 -73 -57 -99 -169
-60 -254 29 -66 127 -140 330 -252 62 -35 115 -63 116 -63 2 0 41 -17 87 -39
83 -38 300 -126 433 -175 95 -35 498 -177 510 -180 6 -2 17 -6 25 -9 8 -3 58
-21 110 -41 558 -205 842 -420 929 -701 28 -91 24 -243 -9 -330 -75 -195 -297
-423 -530 -544 -207 -107 -552 -216 -785 -247 -27 -3 -59 -8 -70 -10 -145 -28
-602 -22 -760 11 -16 3 -48 8 -70 11 -22 3 -85 16 -140 30 -55 14 -108 27
-118 29 -10 2 -80 25 -155 50 -236 80 -531 236 -740 392 -81 61 -105 81 -211
177 -348 315 -625 756 -765 1218 -19 62 -36 127 -39 143 -3 17 -12 59 -20 95
-15 62 -18 79 -32 180 -3 25 -8 61 -11 80 -3 19 -7 136 -9 260 -2 203 7 346
29 470 4 19 9 51 12 70 2 19 7 43 10 52 3 10 7 30 10 45 4 22 17 72 29 113 1
3 5 19 9 35 18 65 65 203 105 300 27 68 131 273 174 345 47 78 191 288 206
300 4 3 22 25 41 50 19 25 93 104 165 176 256 258 510 431 860 589 84 38 279
105 345 120 8 1 40 10 70 19 55 15 188 41 265 52 22 3 54 7 70 10 17 2 73 7
125 10 52 4 96 7 98 9 4 4 271 -3 335 -9z"/>
<path d="M3809 5816 c-2 -2 -38 -6 -79 -10 -124 -11 -299 -44 -415 -80 -5 -2
-23 -7 -40 -11 -16 -4 -70 -23 -120 -42 -443 -166 -806 -444 -1088 -834 -103
-142 -213 -347 -286 -537 -23 -58 -86 -270 -94 -317 -3 -16 -8 -40 -11 -51 -7
-35 -15 -88 -32 -219 -3 -22 -6 -118 -8 -213 -3 -159 -1 -177 20 -227 25 -62
49 -87 113 -117 92 -43 189 -14 267 80 87 104 233 244 341 325 48 36 89 105
95 157 3 19 -2 64 -9 100 -21 101 -27 157 -26 270 1 121 6 155 34 264 104 406
459 746 1054 1011 184 82 239 100 307 100 58 0 72 -4 109 -30 73 -52 100 -133
73 -224 -17 -57 -67 -102 -146 -131 -114 -42 -287 -121 -401 -182 -271 -147
-452 -307 -550 -488 -44 -80 -67 -158 -61 -202 16 -106 110 -189 214 -190 38
0 71 11 156 52 60 29 136 65 169 80 33 15 95 44 138 64 43 20 80 36 82 36 2 0
37 15 77 34 40 19 174 79 298 134 474 210 713 329 923 458 82 51 110 70 181
124 11 8 50 44 87 80 105 103 131 175 94 254 -35 74 -167 184 -315 263 -123
66 -417 162 -575 187 -16 2 -50 8 -75 12 -25 4 -56 9 -70 10 -40 5 -426 14
-431 10z"/>
<path d="M2607 3223 c-94 -78 -161 -145 -229 -226 -46 -55 -121 -164 -123
-177 -1 -3 -15 -32 -32 -65 -86 -168 -117 -412 -78 -605 3 -14 8 -38 11 -54
12 -67 46 -142 81 -180 69 -73 174 -175 215 -208 22 -18 52 -43 66 -56 54 -47
279 -192 372 -240 255 -131 495 -206 800 -248 102 -14 347 -19 475 -9 215 17
520 91 700 170 92 41 151 70 171 85 12 8 32 22 44 30 36 24 143 115 165 141
118 138 119 212 7 326 -118 120 -380 255 -707 365 -33 11 -73 26 -90 33 -16 7
-55 20 -85 30 -30 9 -64 20 -75 25 -11 5 -60 23 -110 40 -134 47 -385 139
-419 154 -17 7 -67 28 -111 46 -213 89 -559 277 -631 343 -7 7 -27 23 -45 37
-84 64 -199 179 -259 259 l-37 49 -76 -65z"/>
</g>
</svg>
