<svg width="883" height="764" viewBox="0 0 883 764" fill="none" xmlns="http://www.w3.org/2000/svg">
<path d="M599.661 557.498L605.388 513.209L472.522 496.027L489.705 363.161L622.571 380.343L611.116 468.921L699.693 480.376L688.238 568.953L643.949 563.225L632.494 651.802L543.917 640.347L532.462 728.925L443.885 717.47L461.067 584.604L549.645 596.059L555.372 551.77L599.661 557.498ZM798.194 763.29L621.039 740.38L632.494 651.802L721.072 663.257L732.527 574.68L821.104 586.135L798.194 763.29ZM104.094 -137L458.403 -91.1801L412.583 263.129L58.2738 217.309L104.094 -137ZM181.216 -36.9678L158.306 140.187L335.46 163.097L358.37 -14.0579L181.216 -36.9678ZM546.98 -79.7251L901.289 -33.9052L855.469 320.404L501.16 274.584L546.98 -79.7251ZM624.102 20.3071L601.192 197.461L778.346 220.371L801.256 43.217L624.102 20.3071ZM46.8189 305.886L401.128 351.706L355.308 706.015L0.998943 660.195L46.8189 305.886ZM123.941 405.918L101.031 583.073L278.186 605.983L301.095 428.828L123.941 405.918ZM711.148 391.798L844.014 408.981L832.559 497.558L699.693 480.376L711.148 391.798ZM219.777 13.0483L308.354 24.5032L296.899 113.08L208.322 101.625L219.777 13.0483ZM162.502 455.934L251.079 467.389L239.624 555.966L151.047 544.511L162.502 455.934ZM662.663 70.3232L751.24 81.7781L739.785 170.355L651.208 158.9L662.663 70.3232Z" fill="#616E88" fill-opacity="0.1"/>
</svg>
