<svg width="726" height="764" viewBox="0 0 726 764" fill="none" xmlns="http://www.w3.org/2000/svg">
<path d="M162.814 445.194L0.574962 541.848L66.8511 29.4495C67.9851 20.682 72.5556 12.7241 79.557 7.32642C86.5585 1.92874 95.4174 -0.466554 104.185 0.66748L600.054 64.8057C608.822 65.9397 616.78 70.5102 622.177 77.5116C627.575 84.5131 629.97 93.372 628.836 102.139L577.526 498.835L162.814 445.194ZM148.489 376.119L519.961 424.167L558.444 126.646L128.691 71.0593L84.2861 414.366L148.489 376.119ZM238.394 522.192L576.809 565.964L629.168 619.288L673.573 275.981L706.631 280.257C715.398 281.391 723.356 285.961 728.754 292.963C734.151 299.964 736.547 308.823 735.413 317.591L677.688 763.873L545.381 629.121L262.901 592.584C254.133 591.45 246.175 586.879 240.777 579.878C235.38 572.876 232.984 564.017 234.119 555.25L238.394 522.192Z" fill="#616E88" fill-opacity="0.1"/>
</svg>
