<svg width="60" height="60" viewBox="0 0 60 60" fill="none" xmlns="http://www.w3.org/2000/svg">
<circle cx="30" cy="30" r="30" fill="#3878B8"/>
<g clip-path="url(#clip0_357_170)">
<path d="M26.332 17.1667C26.332 16.1942 26.7183 15.2616 27.406 14.5739C28.0936 13.8863 29.0262 13.5 29.9987 13.5C30.9712 13.5 31.9038 13.8863 32.5914 14.5739C33.2791 15.2616 33.6654 16.1942 33.6654 17.1667C35.7708 18.1622 37.5656 19.7119 38.8575 21.6497C40.1493 23.5875 40.8895 25.8403 40.9987 28.1667V33.6667C41.1367 34.8065 41.5403 35.8979 42.1772 36.8532C42.814 37.8085 43.6663 38.6009 44.6654 39.1667H15.332C16.3311 38.6009 17.1833 37.8085 17.8202 36.8532C18.4571 35.8979 18.8607 34.8065 18.9987 33.6667V28.1667C19.1079 25.8403 19.8481 23.5875 21.1399 21.6497C22.4318 19.7119 24.2266 18.1622 26.332 17.1667" stroke="white" stroke-width="2.75" stroke-linecap="round" stroke-linejoin="round"/>
<path d="M24.5 39.167V41.0003C24.5 42.459 25.0795 43.858 26.1109 44.8894C27.1424 45.9209 28.5413 46.5003 30 46.5003C31.4587 46.5003 32.8576 45.9209 33.8891 44.8894C34.9205 43.858 35.5 42.459 35.5 41.0003V39.167" stroke="white" stroke-width="2.75" stroke-linecap="round" stroke-linejoin="round"/>
<path d="M46.5012 20.3328C45.2987 17.7171 43.5525 15.3878 41.3789 13.5" stroke="white" stroke-width="2.75" stroke-linecap="round" stroke-linejoin="round"/>
<path d="M13.5 20.3328C14.7015 17.7175 16.4464 15.3881 18.6187 13.5" stroke="white" stroke-width="2.75" stroke-linecap="round" stroke-linejoin="round"/>
</g>
<defs>
<clipPath id="clip0_357_170">
<rect width="44" height="44" fill="white" transform="translate(8 8)"/>
</clipPath>
</defs>
</svg>
